<svg width="1024" height="1024" viewBox="0 0 1024 1024" fill="none" xmlns="http://www.w3.org/2000/svg">
<circle cx="512" cy="512" r="475" fill="url(#paint0_linear_4_2)"/>
<path d="M336.156 647.548H321.156V662.548V787.861C321.156 827.134 352.993 858.971 392.266 858.971H630.734C670.007 858.971 701.844 827.134 701.844 787.861V662.548V647.548H686.844H336.156Z" fill="#8B94A5" stroke="white" stroke-width="30"/>
<rect x="672" y="246.985" width="123" height="431" rx="35" fill="#8B94A5" stroke="white" stroke-width="30"/>
<g filter="url(#filter0_d_4_2)">
<path d="M451.213 214.795C477.997 168.402 545.003 168.402 571.787 214.795L790.583 593.776C817.352 640.144 783.864 698.084 730.296 698.084H292.704C239.136 698.084 205.648 640.144 232.417 593.776L451.213 214.795Z" fill="#8B94A5"/>
<path d="M803.573 586.276L584.778 207.295C552.22 150.901 470.78 150.902 438.222 207.296L219.427 586.276C186.875 642.66 227.607 713.084 292.704 713.084H730.296C795.393 713.084 836.125 642.66 803.573 586.276Z" stroke="white" stroke-width="30"/>
</g>
<circle cx="511.596" cy="584.458" r="27.1352" fill="white"/>
<rect x="484.461" y="330.066" width="54.2704" height="193.338" rx="27.1352" fill="white"/>
<defs>
<filter id="filter0_d_4_2" x="182.953" y="144" width="657.095" height="598.084" filterUnits="userSpaceOnUse" color-interpolation-filters="sRGB">
<feFlood flood-opacity="0" result="BackgroundImageFix"/>
<feColorMatrix in="SourceAlpha" type="matrix" values="0 0 0 0 0 0 0 0 0 0 0 0 0 0 0 0 0 0 127 0" result="hardAlpha"/>
<feOffset dy="4"/>
<feGaussianBlur stdDeviation="5"/>
<feComposite in2="hardAlpha" operator="out"/>
<feColorMatrix type="matrix" values="0 0 0 0 0 0 0 0 0 0 0 0 0 0 0 0 0 0 0.3 0"/>
<feBlend mode="normal" in2="BackgroundImageFix" result="effect1_dropShadow_4_2"/>
<feBlend mode="normal" in="SourceGraphic" in2="effect1_dropShadow_4_2" result="shape"/>
</filter>
<linearGradient id="paint0_linear_4_2" x1="512" y1="37" x2="512" y2="987" gradientUnits="userSpaceOnUse">
<stop stop-color="#4D71DB"/>
<stop offset="1" stop-color="#293C75"/>
</linearGradient>
</defs>
</svg>
